<?xml version="1.0" encoding="UTF-8"?>
<svg width="78px" height="81px" viewBox="0 0 78 81" version="1.1" xmlns="http://www.w3.org/2000/svg" xmlns:xlink="http://www.w3.org/1999/xlink">
    <!-- Generator: Sketch 42 (36781) - http://www.bohemiancoding.com/sketch -->
    <title>magnifier</title>
    <desc>Created with Sketch.</desc>
    <defs></defs>
    <g id="Page-1" stroke="none" stroke-width="1" fill="none" fill-rule="evenodd">
        <g id="iPhone-7" transform="translate(-146.000000, -281.000000)">
            <g id="magnifier" transform="translate(138.000000, 273.000000)">
                <g id="glass" transform="translate(36.052504, 36.241193) rotate(-44.000000) translate(-36.052504, -36.241193) translate(10.552504, 11.241193)">
                    <ellipse id="round-border" stroke="#000000" stroke-width="5" cx="25.5" cy="25" rx="25.5" ry="25"></ellipse>
                    <g id="cross" transform="translate(25.500000, 25.000000) rotate(44.000000) translate(-25.500000, -25.000000) translate(10.000000, 10.000000)" fill="#000000">
                        <rect id="Rectangle" x="13" y="1.0658141e-14" width="5" height="30" rx="2"></rect>
                        <rect id="Rectangle" transform="translate(15.500000, 15.000000) rotate(-90.000000) translate(-15.500000, -15.000000) " x="13" y="1.0658141e-14" width="5" height="30" rx="2"></rect>
                    </g>
                </g>
                <path d="M58.6990264,46.9194773 L58.6990264,82.8601177 C58.6990264,93.9638523 75.6990264,95.8768634 75.6990264,82.8601177 L75.6990264,48.9556375" id="handle" stroke="#000000" fill="#000000" transform="translate(67.199026, 69.419477) scale(-1, 1) rotate(-315.000000) translate(-67.199026, -69.419477) "></path>
            </g>
        </g>
    </g>
</svg>